<svg xmlns="http://www.w3.org/2000/svg" viewBox="0 0 242.81 50.17"><defs><style>.cls-1{fill:#59b38d;}.cls-2{fill:#4b4a45;}</style></defs><title>RMX</title><g id="Layer_2" data-name="Layer 2"><g id="Capa_1" data-name="Capa 1"><path class="cls-1" d="M3.27,49.45A3.27,3.27,0,0,1,0,46.18V5.39a3.27,3.27,0,1,1,6.55,0V46.18A3.27,3.27,0,0,1,3.27,49.45Z"/><path class="cls-1" d="M16,30.69a19.32,19.32,0,0,1-3-.21A3.28,3.28,0,0,1,14.08,24c1.48.24,5.91.39,8.49-1.8C24.17,20.85,25,18.71,25,15.67A5.89,5.89,0,0,0,23.17,11c-2.62-2.4-7.76-2.53-9.36-2.39a3.28,3.28,0,1,1-.58-6.52c.92-.08,9.17-.67,14.36,4.08a12.41,12.41,0,0,1,3.91,9.45c0,5-1.59,8.93-4.73,11.58C23.34,30.13,18.9,30.69,16,30.69Z"/><path class="cls-1" d="M29.44,49.45a3.28,3.28,0,0,1-2.77-1.53L20.28,37.82a3.28,3.28,0,1,1,5.54-3.5l6.39,10.11a3.28,3.28,0,0,1-2.77,5Z"/><path class="cls-2" d="M48.63,49.43a3.23,3.23,0,0,1-3.23-3.23V5.37A3.23,3.23,0,0,1,50.78,3L70.23,20.27a3.23,3.23,0,0,1-4.29,4.82L51.86,12.56V46.2A3.23,3.23,0,0,1,48.63,49.43Z"/><path class="cls-2" d="M143.4,42.26,126,24.84,141.51,5.23a3.23,3.23,0,0,0-5.06-4l-15.06,19L104.5,3.36a3.23,3.23,0,1,0-4.56,4.56l17.42,17.42L101.83,44.95a3.23,3.23,0,0,0,5.06,4l15.06-19,16.89,16.89a3.23,3.23,0,1,0,4.56-4.56Z"/><path class="cls-2" d="M87.54,49.43a3.23,3.23,0,0,1-3.23-3.23V12.56l-5.65,5a3.23,3.23,0,0,1-4.29-4.82l11-9.8a3.23,3.23,0,0,1,5.37,2.41V46.2A3.23,3.23,0,0,1,87.54,49.43Z"/><path class="cls-2" d="M159.61,19V5.84h2.48l.41,2h.17c1.14-1.24,2.46-2.24,3.67-2.24a1.81,1.81,0,0,1,1.53.8l-.71,2.5A2.78,2.78,0,0,0,166,8.64c-1.09,0-2.48,1.24-3.26,2V19Z"/><path class="cls-2" d="M180.68,18.29a12.27,12.27,0,0,1-4.79.92c-3.5,0-6.81-1.75-6.81-6.59,0-5.2,3-7,6.35-7,3.77,0,5.57,2.16,5.57,5.72,0,.32,0,.68,0,1h-8.73v.51c0,2.94,1.75,4.06,4.09,4.06a13.32,13.32,0,0,0,4-.75Zm-2.55-7.52c0-2.29-1.07-3.14-2.63-3.14s-2.89.92-3.16,3.14Z"/><path class="cls-2" d="M182.52,5.84h2.14l.61-3.23h2.41V5.84h4.06L191.52,8H187.7v6.79c0,1.12.32,1.9,1.58,1.9a7.37,7.37,0,0,0,2.58-.58l.39,2.31a10.31,10.31,0,0,1-3.89.8c-2.72,0-3.75-1.41-3.75-4.11V8h-2.09Z"/><path class="cls-2" d="M193.93,12.45c0-4.4,2.26-6.83,6.45-6.83S206.8,8,206.8,12.45c0,4.84-2.63,6.76-6.44,6.76S193.93,17.22,193.93,12.45Zm9.7,0c0-3.36-1.34-4.55-3.26-4.55s-3.28,1.17-3.28,4.57c0,3,1.27,4.48,3.28,4.48S203.63,15.54,203.63,12.45Z"/><path class="cls-2" d="M159.61,32.16h2.6l.32,1.73.17,0a5.87,5.87,0,0,1,4.33-2,3.72,3.72,0,0,1,3.6,2.07h.17a6.42,6.42,0,0,1,4.57-2.07c3,0,4.3,1.92,4.3,5v8.37h-3.11V37.39c0-2-.71-3-2.19-3a3.93,3.93,0,0,0-3.16,1.65v9.24H168.1V37.39c0-2-.71-3-2.16-3a4.14,4.14,0,0,0-3.21,1.8v9.1h-3.11Z"/><path class="cls-2" d="M193.91,44.61a12.27,12.27,0,0,1-4.79.92c-3.5,0-6.81-1.75-6.81-6.59,0-5.2,3-7,6.35-7,3.77,0,5.57,2.16,5.57,5.72,0,.32,0,.68,0,1h-8.73v.51c0,2.94,1.75,4.06,4.09,4.06a13.33,13.33,0,0,0,4-.75Zm-2.55-7.52c0-2.29-1.07-3.14-2.63-3.14s-2.89.92-3.16,3.14Zm-5.18-7.44,3.19-5.52,2.43,1.36-4.33,4.79Z"/><path class="cls-2" d="M205,38.34c1.17,1.85,1.53,2.43,2.63,3.94a2.21,2.21,0,0,0,1.73.95v2.09a8.32,8.32,0,0,1-1.43.12c-1.24,0-1.8-.39-2.82-1.73s-1.51-2.24-2.34-3.55h-.12c-.66,1-1.68,2.6-3.23,5.16H196c2-3.16,3.77-5.67,4.52-6.76-.9-1.36-1.41-2.16-2.33-3.41a2,2,0,0,0-1.56-1v-2c.46,0,.83,0,1.24,0,1.34,0,1.9.27,2.89,1.68.78,1.12,1.29,1.95,2,3h.12c.44-.73,1.51-2.36,2.77-4.62H209C207.4,34.77,205.68,37.34,205,38.34Z"/><path class="cls-2" d="M213.39,25.86a1.78,1.78,0,1,1,0,3.55,1.78,1.78,0,1,1,0-3.55Zm-1.56,6.3h3.11V45.32h-3.11Z"/><path class="cls-2" d="M217.71,38.95c0-3.79,1.26-7,6.15-7a11.55,11.55,0,0,1,4.18.83l-.46,2.38a8.77,8.77,0,0,0-3.28-.75c-2.41,0-3.43,1.56-3.43,4.48,0,2.58,1,4.21,3.65,4.21a11.17,11.17,0,0,0,3.43-.66l.39,2.24a11.06,11.06,0,0,1-4.4.88C220.15,45.54,217.71,43.37,217.71,38.95Z"/><path class="cls-2" d="M229.95,38.78c0-4.4,2.26-6.83,6.45-6.83s6.42,2.38,6.42,6.83c0,4.84-2.63,6.76-6.44,6.76S229.95,43.54,229.95,38.78Zm9.7,0c0-3.36-1.34-4.55-3.26-4.55s-3.28,1.17-3.28,4.57c0,3,1.27,4.48,3.28,4.48S239.65,41.87,239.65,38.78Z"/></g></g></svg>